<?xml version="1.0" encoding="UTF-8"?>
<svg xmlns="http://www.w3.org/2000/svg" xmlns:xlink="http://www.w3.org/1999/xlink" width="16pt" height="16pt" viewBox="0 0 16 16" version="1.1">
<g id="surface1">
<path style=" stroke:none;fill-rule:nonzero;fill:rgb(0%,0%,0%);fill-opacity:1;" d="M 12 13.144531 C 12 12.988281 11.945312 12.855469 11.832031 12.742188 C 11.71875 12.628906 11.582031 12.570312 11.429688 12.570312 C 11.273438 12.570312 11.140625 12.628906 11.027344 12.742188 C 10.914062 12.855469 10.855469 12.988281 10.855469 13.144531 C 10.855469 13.296875 10.914062 13.429688 11.027344 13.542969 C 11.140625 13.65625 11.273438 13.714844 11.429688 13.714844 C 11.582031 13.714844 11.71875 13.65625 11.832031 13.542969 C 11.945312 13.429688 12 13.296875 12 13.144531 Z M 14.285156 13.144531 C 14.285156 12.988281 14.230469 12.855469 14.117188 12.742188 C 14.003906 12.628906 13.867188 12.570312 13.714844 12.570312 C 13.558594 12.570312 13.425781 12.628906 13.3125 12.742188 C 13.199219 12.855469 13.144531 12.988281 13.144531 13.144531 C 13.144531 13.296875 13.199219 13.429688 13.3125 13.542969 C 13.425781 13.65625 13.558594 13.714844 13.714844 13.714844 C 13.867188 13.714844 14.003906 13.65625 14.117188 13.542969 C 14.230469 13.429688 14.285156 13.296875 14.285156 13.144531 Z M 15.429688 11.144531 L 15.429688 14 C 15.429688 14.238281 15.34375 14.441406 15.179688 14.605469 C 15.011719 14.773438 14.808594 14.855469 14.570312 14.855469 L 1.429688 14.855469 C 1.191406 14.855469 0.988281 14.773438 0.820312 14.605469 C 0.65625 14.441406 0.570312 14.238281 0.570312 14 L 0.570312 11.144531 C 0.570312 10.90625 0.65625 10.703125 0.820312 10.535156 C 0.988281 10.367188 1.191406 10.285156 1.429688 10.285156 L 5.242188 10.285156 C 5.367188 10.617188 5.574219 10.894531 5.871094 11.105469 C 6.164062 11.320312 6.492188 11.429688 6.855469 11.429688 L 9.144531 11.429688 C 9.507812 11.429688 9.835938 11.320312 10.128906 11.105469 C 10.425781 10.894531 10.632812 10.617188 10.757812 10.285156 L 14.570312 10.285156 C 14.808594 10.285156 15.011719 10.367188 15.179688 10.535156 C 15.34375 10.703125 15.429688 10.90625 15.429688 11.144531 Z M 12.527344 5.355469 C 12.425781 5.59375 12.25 5.714844 12 5.714844 L 9.714844 5.714844 L 9.714844 9.714844 C 9.714844 9.867188 9.65625 10.003906 9.542969 10.117188 C 9.429688 10.230469 9.296875 10.285156 9.144531 10.285156 L 6.855469 10.285156 C 6.703125 10.285156 6.570312 10.230469 6.457031 10.117188 C 6.34375 10.003906 6.285156 9.867188 6.285156 9.714844 L 6.285156 5.714844 L 4 5.714844 C 3.75 5.714844 3.574219 5.59375 3.472656 5.355469 C 3.371094 5.125 3.414062 4.917969 3.597656 4.742188 L 7.597656 0.742188 C 7.707031 0.628906 7.839844 0.570312 8 0.570312 C 8.160156 0.570312 8.292969 0.628906 8.402344 0.742188 L 12.402344 4.742188 C 12.585938 4.917969 12.628906 5.125 12.527344 5.355469 Z M 12.527344 5.355469 "/>
</g>
</svg>
