<?xml version="1.0" encoding="UTF-8"?>
<svg xmlns="http://www.w3.org/2000/svg" xmlns:xlink="http://www.w3.org/1999/xlink" width="16pt" height="16pt" viewBox="0 0 16 16" version="1.1">
<g id="surface1">
<path style=" stroke:none;fill-rule:nonzero;fill:rgb(0%,0%,0%);fill-opacity:1;" d="M 0.5625 13.714844 L 0 13.714844 L 0 1.144531 L 0.5625 1.144531 Z M 1.125 13.707031 L 0.839844 13.707031 L 0.839844 1.144531 L 1.125 1.144531 Z M 1.964844 13.707031 L 1.6875 13.707031 L 1.6875 1.144531 L 1.964844 1.144531 Z M 3.367188 13.707031 L 3.089844 13.707031 L 3.089844 1.144531 L 3.367188 1.144531 Z M 4.769531 13.707031 L 4.214844 13.707031 L 4.214844 1.144531 L 4.769531 1.144531 Z M 5.894531 13.707031 L 5.617188 13.707031 L 5.617188 1.144531 L 5.894531 1.144531 Z M 6.457031 13.707031 L 6.179688 13.707031 L 6.179688 1.144531 L 6.457031 1.144531 Z M 7.019531 13.707031 L 6.742188 13.707031 L 6.742188 1.144531 L 7.019531 1.144531 Z M 8.417969 13.707031 L 7.855469 13.707031 L 7.855469 1.144531 L 8.417969 1.144531 Z M 9.820312 13.707031 L 9.257812 13.707031 L 9.257812 1.144531 L 9.820312 1.144531 Z M 10.945312 13.707031 L 10.382812 13.707031 L 10.382812 1.144531 L 10.945312 1.144531 Z M 12.070312 13.707031 L 11.507812 13.707031 L 11.507812 1.144531 L 12.070312 1.144531 Z M 12.910156 13.707031 L 12.347656 13.707031 L 12.347656 1.144531 L 12.910156 1.144531 Z M 14.597656 13.707031 L 13.757812 13.707031 L 13.757812 1.144531 L 14.597656 1.144531 Z M 15.160156 13.707031 L 14.875 13.707031 L 14.875 1.144531 L 15.160156 1.144531 Z M 16 13.714844 L 15.4375 13.714844 L 15.4375 1.144531 L 16 1.144531 Z M 16 13.714844 "/>
</g>
</svg>
