<?xml version="1.0" encoding="UTF-8"?>
<svg xmlns="http://www.w3.org/2000/svg" xmlns:xlink="http://www.w3.org/1999/xlink" width="16pt" height="14pt" viewBox="0 0 16 14" version="1.1">
<g id="surface1">
<path style=" stroke:none;fill-rule:nonzero;fill:rgb(0%,0%,0%);fill-opacity:1;" d="M 8 5.25 C 8.621094 5.25 9.148438 5.46875 9.589844 5.910156 C 10.03125 6.351562 10.25 6.878906 10.25 7.5 C 10.25 8.121094 10.03125 8.648438 9.589844 9.089844 C 9.148438 9.53125 8.621094 9.75 8 9.75 C 7.378906 9.75 6.851562 9.53125 6.410156 9.089844 C 5.96875 8.648438 5.75 8.121094 5.75 7.5 C 5.75 6.878906 5.96875 6.351562 6.410156 5.910156 C 6.851562 5.46875 7.378906 5.25 8 5.25 Z M 13.5 2 C 14.050781 2 14.523438 2.195312 14.914062 2.585938 C 15.304688 2.976562 15.5 3.449219 15.5 4 L 15.5 11 C 15.5 11.550781 15.304688 12.023438 14.914062 12.414062 C 14.523438 12.804688 14.050781 13 13.5 13 L 2.5 13 C 1.949219 13 1.476562 12.804688 1.085938 12.414062 C 0.695312 12.023438 0.5 11.550781 0.5 11 L 0.5 4 C 0.5 3.449219 0.695312 2.976562 1.085938 2.585938 C 1.476562 2.195312 1.949219 2 2.5 2 L 4.25 2 L 4.648438 0.9375 C 4.746094 0.683594 4.929688 0.460938 5.191406 0.277344 C 5.453125 0.09375 5.722656 0 6 0 L 10 0 C 10.277344 0 10.546875 0.09375 10.808594 0.277344 C 11.070312 0.460938 11.253906 0.683594 11.351562 0.9375 L 11.75 2 Z M 8 11 C 8.964844 11 9.789062 10.65625 10.472656 9.972656 C 11.15625 9.289062 11.5 8.464844 11.5 7.5 C 11.5 6.535156 11.15625 5.710938 10.472656 5.027344 C 9.789062 4.34375 8.964844 4 8 4 C 7.035156 4 6.210938 4.34375 5.527344 5.027344 C 4.84375 5.710938 4.5 6.535156 4.5 7.5 C 4.5 8.464844 4.84375 9.289062 5.527344 9.972656 C 6.210938 10.65625 7.035156 11 8 11 Z M 8 11 "/>
</g>
</svg>
