<?xml version="1.0" encoding="UTF-8"?>
<svg xmlns="http://www.w3.org/2000/svg" xmlns:xlink="http://www.w3.org/1999/xlink" width="16pt" height="16pt" viewBox="0 0 16 16" version="1.1">
<g id="surface1">
<path style=" stroke:none;fill-rule:nonzero;fill:rgb(0%,0%,0%);fill-opacity:1;" d="M 4.382812 13.714844 L 5.195312 12.902344 L 3.097656 10.804688 L 2.285156 11.617188 L 2.285156 12.570312 L 3.429688 12.570312 L 3.429688 13.714844 Z M 9.054688 5.429688 C 9.054688 5.296875 8.988281 5.230469 8.855469 5.230469 C 8.796875 5.230469 8.746094 5.253906 8.707031 5.292969 L 3.867188 10.132812 C 3.824219 10.175781 3.804688 10.226562 3.804688 10.285156 C 3.804688 10.417969 3.867188 10.480469 4 10.480469 C 4.058594 10.480469 4.109375 10.460938 4.152344 10.417969 L 8.992188 5.582031 C 9.03125 5.539062 9.054688 5.488281 9.054688 5.429688 Z M 8.570312 3.714844 L 12.285156 7.429688 L 4.855469 14.855469 L 1.144531 14.855469 L 1.144531 11.144531 Z M 14.667969 4.570312 C 14.667969 4.886719 14.558594 5.15625 14.339844 5.375 L 12.855469 6.855469 L 9.144531 3.144531 L 10.625 1.667969 C 10.839844 1.445312 11.105469 1.332031 11.429688 1.332031 C 11.742188 1.332031 12.015625 1.445312 12.242188 1.667969 L 14.339844 3.757812 C 14.558594 3.992188 14.667969 4.261719 14.667969 4.570312 Z M 14.667969 4.570312 "/>
</g>
</svg>
