<?xml version="1.0" encoding="UTF-8"?>
<svg xmlns="http://www.w3.org/2000/svg" xmlns:xlink="http://www.w3.org/1999/xlink" width="16pt" height="16pt" viewBox="0 0 16 16" version="1.1">
<g id="surface1">
<path style=" stroke:none;fill-rule:nonzero;fill:rgb(0%,0%,0%);fill-opacity:1;" d="M 3.429688 10.285156 C 3.429688 9.96875 3.316406 9.699219 3.09375 9.476562 C 2.871094 9.253906 2.601562 9.144531 2.285156 9.144531 C 1.96875 9.144531 1.699219 9.253906 1.476562 9.476562 C 1.253906 9.699219 1.144531 9.96875 1.144531 10.285156 C 1.144531 10.601562 1.253906 10.871094 1.476562 11.09375 C 1.699219 11.316406 1.96875 11.429688 2.285156 11.429688 C 2.601562 11.429688 2.871094 11.316406 3.09375 11.09375 C 3.316406 10.871094 3.429688 10.601562 3.429688 10.285156 Z M 5.144531 6.285156 C 5.144531 5.96875 5.03125 5.699219 4.808594 5.476562 C 4.585938 5.253906 4.316406 5.144531 4 5.144531 C 3.683594 5.144531 3.414062 5.253906 3.191406 5.476562 C 2.96875 5.699219 2.855469 5.96875 2.855469 6.285156 C 2.855469 6.601562 2.96875 6.871094 3.191406 7.09375 C 3.414062 7.316406 3.683594 7.429688 4 7.429688 C 4.316406 7.429688 4.585938 7.316406 4.808594 7.09375 C 5.03125 6.871094 5.144531 6.601562 5.144531 6.285156 Z M 8.964844 10.582031 L 9.867188 7.167969 C 9.902344 7.015625 9.878906 6.871094 9.800781 6.738281 C 9.71875 6.601562 9.605469 6.515625 9.457031 6.472656 C 9.304688 6.429688 9.164062 6.449219 9.027344 6.53125 C 8.890625 6.613281 8.800781 6.730469 8.757812 6.882812 L 7.855469 10.292969 C 7.5 10.324219 7.179688 10.453125 6.902344 10.683594 C 6.621094 10.914062 6.433594 11.207031 6.339844 11.5625 C 6.21875 12.019531 6.28125 12.457031 6.519531 12.867188 C 6.757812 13.277344 7.105469 13.542969 7.5625 13.660156 C 8.019531 13.78125 8.457031 13.71875 8.867188 13.480469 C 9.277344 13.242188 9.542969 12.894531 9.660156 12.4375 C 9.757812 12.082031 9.738281 11.730469 9.605469 11.394531 C 9.476562 11.054688 9.261719 10.78125 8.964844 10.582031 Z M 14.855469 10.285156 C 14.855469 9.96875 14.746094 9.699219 14.523438 9.476562 C 14.300781 9.253906 14.03125 9.144531 13.714844 9.144531 C 13.398438 9.144531 13.128906 9.253906 12.90625 9.476562 C 12.683594 9.699219 12.570312 9.96875 12.570312 10.285156 C 12.570312 10.601562 12.683594 10.871094 12.90625 11.09375 C 13.128906 11.316406 13.398438 11.429688 13.714844 11.429688 C 14.03125 11.429688 14.300781 11.316406 14.523438 11.09375 C 14.746094 10.871094 14.855469 10.601562 14.855469 10.285156 Z M 9.144531 4.570312 C 9.144531 4.257812 9.03125 3.988281 8.808594 3.761719 C 8.585938 3.539062 8.316406 3.429688 8 3.429688 C 7.683594 3.429688 7.414062 3.539062 7.191406 3.761719 C 6.96875 3.988281 6.855469 4.257812 6.855469 4.570312 C 6.855469 4.886719 6.96875 5.15625 7.191406 5.378906 C 7.414062 5.601562 7.683594 5.714844 8 5.714844 C 8.316406 5.714844 8.585938 5.601562 8.808594 5.378906 C 9.03125 5.15625 9.144531 4.886719 9.144531 4.570312 Z M 13.144531 6.285156 C 13.144531 5.96875 13.03125 5.699219 12.808594 5.476562 C 12.585938 5.253906 12.316406 5.144531 12 5.144531 C 11.683594 5.144531 11.414062 5.253906 11.191406 5.476562 C 10.96875 5.699219 10.855469 5.96875 10.855469 6.285156 C 10.855469 6.601562 10.96875 6.871094 11.191406 7.09375 C 11.414062 7.316406 11.683594 7.429688 12 7.429688 C 12.316406 7.429688 12.585938 7.316406 12.808594 7.09375 C 13.03125 6.871094 13.144531 6.601562 13.144531 6.285156 Z M 16 10.285156 C 16 11.839844 15.582031 13.277344 14.742188 14.597656 C 14.628906 14.769531 14.46875 14.855469 14.257812 14.855469 L 1.742188 14.855469 C 1.53125 14.855469 1.371094 14.769531 1.257812 14.597656 C 0.417969 13.28125 0 11.84375 0 10.285156 C 0 9.203125 0.210938 8.167969 0.632812 7.179688 C 1.054688 6.191406 1.625 5.339844 2.339844 4.625 C 3.054688 3.910156 3.90625 3.34375 4.894531 2.917969 C 5.882812 2.496094 6.917969 2.285156 8 2.285156 C 9.082031 2.285156 10.117188 2.496094 11.105469 2.917969 C 12.09375 3.34375 12.945312 3.910156 13.660156 4.625 C 14.375 5.339844 14.945312 6.191406 15.367188 7.179688 C 15.789062 8.167969 16 9.203125 16 10.285156 Z M 16 10.285156 "/>
</g>
</svg>
