<?xml version="1.0" encoding="UTF-8"?>
<svg xmlns="http://www.w3.org/2000/svg" xmlns:xlink="http://www.w3.org/1999/xlink" width="16pt" height="16pt" viewBox="0 0 16 16" version="1.1">
<g id="surface1">
<path style=" stroke:none;fill-rule:nonzero;fill:rgb(0%,0%,0%);fill-opacity:1;" d="M 4.492188 11.347656 L 2.207031 13.632812 C 2.140625 13.6875 2.070312 13.714844 2 13.714844 C 1.929688 13.714844 1.859375 13.6875 1.792969 13.632812 C 1.742188 13.574219 1.714844 13.507812 1.714844 13.429688 C 1.714844 13.351562 1.742188 13.28125 1.792969 13.222656 L 4.082031 10.9375 C 4.140625 10.882812 4.207031 10.855469 4.285156 10.855469 C 4.363281 10.855469 4.429688 10.882812 4.492188 10.9375 C 4.542969 10.996094 4.570312 11.066406 4.570312 11.144531 C 4.570312 11.21875 4.542969 11.289062 4.492188 11.347656 Z M 6 11.714844 L 6 14.570312 C 6 14.65625 5.972656 14.722656 5.917969 14.777344 C 5.867188 14.832031 5.796875 14.855469 5.714844 14.855469 C 5.632812 14.855469 5.5625 14.832031 5.507812 14.777344 C 5.457031 14.722656 5.429688 14.65625 5.429688 14.570312 L 5.429688 11.714844 C 5.429688 11.632812 5.457031 11.5625 5.507812 11.507812 C 5.5625 11.457031 5.632812 11.429688 5.714844 11.429688 C 5.796875 11.429688 5.867188 11.457031 5.917969 11.507812 C 5.972656 11.5625 6 11.632812 6 11.714844 Z M 4 9.714844 C 4 9.796875 3.972656 9.867188 3.917969 9.917969 C 3.867188 9.972656 3.796875 10 3.714844 10 L 0.855469 10 C 0.773438 10 0.707031 9.972656 0.652344 9.917969 C 0.597656 9.867188 0.570312 9.796875 0.570312 9.714844 C 0.570312 9.632812 0.597656 9.5625 0.652344 9.507812 C 0.707031 9.457031 0.773438 9.429688 0.855469 9.429688 L 3.714844 9.429688 C 3.796875 9.429688 3.867188 9.457031 3.917969 9.507812 C 3.972656 9.5625 4 9.632812 4 9.714844 Z M 15.285156 10.855469 C 15.285156 11.570312 15.03125 12.175781 14.527344 12.667969 L 13.214844 13.972656 C 12.71875 14.46875 12.117188 14.714844 11.402344 14.714844 C 10.679688 14.714844 10.074219 14.460938 9.582031 13.957031 L 6.597656 10.964844 C 6.472656 10.839844 6.347656 10.671875 6.222656 10.464844 L 8.355469 10.304688 L 10.792969 12.75 C 10.957031 12.910156 11.15625 12.992188 11.402344 12.996094 C 11.644531 13 11.847656 12.917969 12.007812 12.757812 L 13.320312 11.457031 C 13.488281 11.289062 13.570312 11.089844 13.570312 10.855469 C 13.570312 10.617188 13.488281 10.417969 13.320312 10.25 L 10.875 7.792969 L 11.035156 5.660156 C 11.242188 5.785156 11.410156 5.910156 11.535156 6.035156 L 14.535156 9.035156 C 15.035156 9.546875 15.285156 10.15625 15.285156 10.855469 Z M 9.777344 4.394531 L 7.644531 4.554688 L 5.207031 2.105469 C 5.039062 1.941406 4.835938 1.855469 4.597656 1.855469 C 4.367188 1.855469 4.164062 1.9375 3.992188 2.097656 L 2.679688 3.402344 C 2.511719 3.570312 2.429688 3.769531 2.429688 4 C 2.429688 4.238281 2.511719 4.441406 2.679688 4.605469 L 5.125 7.054688 L 4.964844 9.195312 C 4.757812 9.070312 4.589844 8.945312 4.464844 8.820312 L 1.464844 5.820312 C 0.964844 5.308594 0.714844 4.703125 0.714844 4 C 0.714844 3.285156 0.96875 2.679688 1.472656 2.1875 L 2.785156 0.882812 C 3.28125 0.390625 3.882812 0.144531 4.597656 0.144531 C 5.320312 0.144531 5.925781 0.394531 6.417969 0.902344 L 9.402344 3.894531 C 9.527344 4.019531 9.652344 4.183594 9.777344 4.394531 Z M 15.429688 5.144531 C 15.429688 5.226562 15.402344 5.292969 15.347656 5.347656 C 15.292969 5.402344 15.226562 5.429688 15.144531 5.429688 L 12.285156 5.429688 C 12.203125 5.429688 12.132812 5.402344 12.082031 5.347656 C 12.027344 5.292969 12 5.226562 12 5.144531 C 12 5.058594 12.027344 4.992188 12.082031 4.9375 C 12.132812 4.882812 12.203125 4.855469 12.285156 4.855469 L 15.144531 4.855469 C 15.226562 4.855469 15.292969 4.882812 15.347656 4.9375 C 15.402344 4.992188 15.429688 5.058594 15.429688 5.144531 Z M 10.570312 0.285156 L 10.570312 3.144531 C 10.570312 3.226562 10.542969 3.292969 10.492188 3.347656 C 10.4375 3.402344 10.367188 3.429688 10.285156 3.429688 C 10.203125 3.429688 10.132812 3.402344 10.082031 3.347656 C 10.027344 3.292969 10 3.226562 10 3.144531 L 10 0.285156 C 10 0.203125 10.027344 0.132812 10.082031 0.0820312 C 10.132812 0.0273438 10.203125 0 10.285156 0 C 10.367188 0 10.4375 0.0273438 10.492188 0.0820312 C 10.542969 0.132812 10.570312 0.203125 10.570312 0.285156 Z M 14.207031 1.632812 L 11.917969 3.917969 C 11.855469 3.972656 11.785156 4 11.714844 4 C 11.644531 4 11.574219 3.972656 11.507812 3.917969 C 11.457031 3.859375 11.429688 3.792969 11.429688 3.714844 C 11.429688 3.636719 11.457031 3.570312 11.507812 3.507812 L 13.792969 1.222656 C 13.855469 1.167969 13.921875 1.144531 14 1.144531 C 14.078125 1.144531 14.144531 1.167969 14.207031 1.222656 C 14.257812 1.28125 14.285156 1.351562 14.285156 1.429688 C 14.285156 1.507812 14.257812 1.574219 14.207031 1.632812 Z M 14.207031 1.632812 "/>
</g>
</svg>
